# xmcd
#
# Track frame offsets:
#	150
#	15866
#	35388
#	49909
#	69508
#	81964
#	97875
#	113843
#	127109
#	142790
#	156592
#	171846
#	184973
#	201100
#	217359
#	231905
#	247690
#	262788
#
# Disc length: 3684 seconds
#
# Revision: 0
# Processed by: cddbd v1.5.2PL0 Copyright (c) Steve Scherf et al.
# Submitted via: dBpowerAMP V4.0
#
DISCID=f60e6212
DTITLE=Various Artist - Hott Tracks 115
DYEAR=1900
DGENRE=Country
TTITLE0=Gretchen Wilson - All Jacked Up
TTITLE1=Faith Hill - Like We Never Loved At All
TTITLE2=Martina McBride - I Never Promised You A Rose Garden
TTITLE3=Rascal Flatts - Skin (Sarabeth)
TTITLE4=Amber Dotson - I Ain't Your Mama
TTITLE5=Darryl Woley - I Love Her She Hates Me
TTITLE6=Bobby Pinson - One More Believer
TTITLE7=Buddy Jewell - So Gone
TTITLE8=Gord Bamford - All About Her
TTITLE9=Joe Nichols - Tequila Makes Her Clothes Fall Off
TTITLE10=Alan Jackson - USA Today
TTITLE11=Jamie Johnson - The Dollar
TTITLE12=Willie Nelson - The Harder They Come
TTITLE13=Rascal Flatts - Here's To You
TTITLE14=Jessica Andrews - Summer Girl
TTITLE15=Josh Turner - Your Man
TTITLE16=Patty Loveless - Keep Your Distance
TTITLE17=Jessica Robinson - I like This Place
EXTD=Hott Country 115
EXTT0=
EXTT1=
EXTT2=
EXTT3=
EXTT4=
EXTT5=
EXTT6=
EXTT7=
EXTT8=
EXTT9=
EXTT10=
EXTT11=
EXTT12=
EXTT13=
EXTT14=
EXTT15=
EXTT16=
EXTT17=
PLAYORDER=
